<?xml version="1.0"?>
<svg xmlns="http://www.w3.org/2000/svg" version="1.2" baseProfile="tiny" width="1000" height="500" viewBox="0 0 1000 500" stroke-linecap="round" stroke-linejoin="round">
<g id="world">
<path d="M 593.99 243.65 608.68 253.98 611.77 269.62 595.81 272.95 590.82 266.61 585.22 264.14 581.34 253.49 584.47 247.71 584.33 244.16 593.99 243.65 Z"/>
<path d="M 475.98 164.35 475.92 165.07 466.82 169.12 464.16 181.89 452.7 182.8 452.82 181.63 459.11 181.41 468.42 166.49 475.98 164.35 Z"/>
<path d="M 159.46 105.18 146.72 100.1 138.12 89.09 124.43 75.27 109.12 73.83 109.16 47.76 146.69 45.92 195.2 52.56 227.09 53.11 236.06 41.64 255.99 50.8 274.38 54.97 237.67 74.38 248.01 82.21 271.92 88.13 287.81 84.29 283.47 68.25 320.96 73.75 334.86 87.98 345.63 96.46 319.65 104.53 313.88 115.89 301.77 116.24 271.46 125.48 271.15 115.3 255 107.11 203.23 105.18 159.46 105.18 Z M 345.86 98.76 352.88 111.68 335.7 109.05 345.86 98.76 Z M 281.63 40.44 327.67 57.61 316.57 69.33 284.05 59.97 298.59 54.49 281.63 40.44 Z M 204.7 38.43 206.26 49.24 185.87 51.02 168.99 42.64 204.7 38.43 Z M 246.1 13.99 328.42 12.69 276.67 29.83 246.1 13.99 Z" fill-rule="evenodd"/>
<path d="M 159.46 105.18 203.23 105.18 255 107.11 271.15 115.3 271.46 125.48 301.77 116.24 313.88 115.89 304.17 126.04 294.91 128.39 290.07 142.46 274.09 155.83 237.5 159.29 229.63 169.38 220.12 159.57 210.42 159.04 204.74 152.99 192.22 154.15 175.3 150.82 166.31 145.52 157 133.03 154.34 107.44 159.46 105.18 Z M 109.16 47.76 109.12 73.83 124.43 75.27 138.12 89.09 128.31 79.89 89.66 74.74 62.76 81.42 39.47 70.53 33.96 58.97 51.15 46.04 109.16 47.76 Z" fill-rule="evenodd"/>
<path d="M 742.18 104.58 736.09 110.72 721.68 116.5 722.5 123.61 705.73 120.98 696.72 123.85 684.95 126.89 662.18 114.64 655.16 126.5 645.55 125.18 636.12 112.39 628.82 106.86 640.74 97.71 654.46 100.68 670.32 91.3 691.47 87.48 712.14 90.83 721.88 100.01 742.18 104.58 Z"/>
<path d="M 655.16 126.5 662.18 114.64 684.95 126.89 696.72 123.85 696.87 129.45 688.04 138.04 684.4 137.44 666.56 126.18 655.16 126.5 Z"/>
<path d="M 890.88 248.23 900.82 251.72 901.26 262.17 890.98 266.29 890.88 248.23 Z"/>
<path d="M 890.88 248.23 890.98 266.29 882.37 255.97 883.48 245.74 890.88 248.23 Z M 826.8 229.55 825.8 243.25 821.58 251.16 805.56 249.15 804.01 235.46 817.76 237.05 826.8 229.55 Z M 789.34 244.02 784.39 252.72 773.34 235.96 781.82 235.24 789.34 244.02 Z" fill-rule="evenodd"/>
<path d="M 340.25 324.78 338.03 335.02 342.57 343.32 321.53 359.87 309.9 386 296.72 380.68 301.64 367.32 299.99 358.16 304.46 327.97 313.97 304.05 326.22 302.7 339.83 310.77 348.57 312.37 340.25 324.78 Z"/>
<path d="M 307.08 289.75 313.97 304.05 304.46 327.97 299.99 358.16 301.64 367.32 296.72 380.68 309.9 386 292.23 385.9 292.94 367.89 297.17 343.93 301.96 330.89 305.69 300.32 304.91 291.88 307.08 289.75 Z"/>
<path d="M 581.34 253.49 585.22 264.14 579.66 264.66 578.05 275.04 566.29 271.31 560.24 261.23 548.44 263.39 545.26 257.31 534.16 257.93 533.77 257.07 536.03 254.27 540.43 254.8 548.58 243.08 551.16 231.3 575.89 226.51 585.48 231.29 582 244.74 580.46 248.89 581.34 253.49 Z"/>
<path d="M 615.28 245.68 616.03 230.15 624.65 227.15 632.48 218.83 635.7 209.38 641.51 211.52 637.09 222.15 629.09 233.1 615.28 245.68 Z"/>
<path d="M 608.68 253.98 593.99 243.65 597.13 235.73 594.27 229.24 597.85 225.75 609.67 231.53 616.03 230.15 615.28 245.68 608.68 253.98 Z"/>
<path d="M 568.11 218.2 563.38 210.13 566.08 186.74 569.31 180.03 602.2 180.03 606.48 191.12 600.99 201.04 594.19 216.94 586.92 213.82 573.4 214.54 568.11 218.2 Z"/>
<path d="M 566.08 186.74 563.38 210.13 549.8 219.14 542.36 220.44 538.68 214.54 540.19 205.37 544.09 184.5 541.17 177.64 543.97 176.12 566.08 186.74 Z"/>
<path d="M 636.12 112.39 629.41 117.35 634.69 125.11 628.64 124.97 610.76 120.61 605.96 110.44 611.08 103.51 588.12 96.58 578.11 85.3 575.65 81.69 577.57 76.14 577.82 73.29 586.33 68.15 579.26 49.55 586.22 48.19 621.84 57.86 676.05 48.22 693.89 38.53 723.19 36.85 807.93 28.36 815.95 37 889.41 39.06 946.16 48.52 999 49.84 999 60.88 997.25 66.42 973.21 73.75 953.37 75.05 949.43 88.95 934.66 99.6 930.9 87.49 943.89 73.18 934.46 70.71 919.34 78.06 894.2 77.35 874.6 89.29 891.84 93.84 888.28 106.71 873.89 120.71 862.55 123.97 862.16 123.49 863.13 108.53 849.15 94.66 823.46 102.72 806.78 104.82 787.41 102.16 774.07 96.73 769.63 103.17 755.7 100.18 743.27 104.35 742.18 104.58 721.88 100.01 712.14 90.83 691.47 87.48 670.32 91.3 654.46 100.68 640.74 97.71 628.82 106.86 636.12 112.39 Z M 563.02 90.41 554.5 90.14 558.96 88.02 563.02 90.41 Z" fill-rule="evenodd"/>
<path d="M 586.22 48.19 579.26 49.55 557.23 49.44 533.07 66.01 530.57 77.86 515.71 78.6 513.84 69.22 529.19 62.25 553.18 47.47 586.22 48.19 Z"/>
<path d="M 370.36 11.95 424.87 9.48 466.16 15.66 445.37 22.7 446.29 35.05 438.04 46.6 389.63 59.55 379.75 74.41 366.2 72.3 350.39 54.75 350.29 42.67 337.59 31.67 297.19 23.58 370.36 11.95 Z"/>
<path d="M 545.31 320.24 555.15 319.92 555.16 309.68 571.15 311.67 581.59 302.26 586.47 302.7 588.26 312.66 588.91 315.13 591.01 315.15 578.23 331.87 554.38 337.54 545.31 320.24 Z"/>
<path d="M 175.3 150.82 192.22 154.15 204.74 152.99 210.42 159.04 220.12 159.57 229.63 169.38 228.68 178.8 238.23 190.72 255.21 189.73 252.88 191.65 244.32 200.71 232.32 197.62 208.94 187.47 206.06 177.88 197.02 167.71 182.68 165.77 175.3 150.82 Z"/>
<path d="M 340.25 324.78 352.04 334.63 338.03 335.02 340.25 324.78 Z"/>
<path d="M 352.04 334.63 340.25 324.78 348.57 312.37 345.83 303.82 338.75 296.95 338.54 286.2 332.27 279.21 318.69 273.08 307.25 271.38 294.89 261.88 297.93 255.64 306.24 252.93 306.45 236.26 314.6 237.54 321.56 230.49 331.63 226.6 336.35 237.36 343.26 235.75 348.85 234.61 356.79 229.5 365.21 241.67 385.03 249.09 402.32 256.17 402.62 265.96 392.01 279.26 389.77 295.35 383.6 304.7 371.17 307.8 364.47 320.51 352.04 334.63 Z"/>
<path d="M 307.25 271.38 318.69 273.08 332.27 279.21 338.54 286.2 338.75 296.95 328.71 295.45 326.22 302.7 313.97 304.05 307.08 289.75 309.65 275.84 307.25 271.38 Z"/>
<path d="M 306.24 252.93 297.93 255.64 294.89 261.88 307.25 271.38 309.65 275.84 307.08 289.75 304.91 291.88 289.29 281.63 278.89 260.96 277.38 250.46 284.22 249.34 291.05 241.44 306.24 252.93 Z"/>
<path d="M 314.6 237.54 306.45 236.26 306.24 252.93 291.05 241.44 281.4 237.19 286.18 230.35 284.09 220.99 285.56 216.98 290.75 211.58 302.25 208.37 297.89 212.05 300.51 221.64 311.98 228.53 314.6 237.54 Z"/>
<path d="M 285.56 216.98 284.09 220.99 270 218.22 271.16 214.5 285.56 216.98 Z"/>
<path d="M 271.16 214.5 270 218.22 262.39 210.28 268.09 210.69 271.16 214.5 Z"/>
<path d="M 268.09 210.69 262.39 210.28 257.94 205.02 269.5 199.45 268.09 210.69 Z"/>
<path d="M 269.5 199.45 257.94 205.02 256.62 203.91 252.29 201.03 255.42 197.42 269.5 199.45 Z"/>
<path d="M 252.29 201.03 256.62 203.91 250.24 202.94 252.29 201.03 Z"/>
<path d="M 244.32 200.71 252.88 191.65 253.46 196.97 255.42 197.42 252.29 201.03 250.24 202.94 244.32 200.71 Z"/>
<path d="M 252.88 191.65 255.21 189.73 253.46 196.97 252.88 191.65 Z"/>
<path d="M 331.63 226.6 321.56 230.49 314.6 237.54 311.98 228.53 300.51 221.64 297.89 212.05 302.25 208.37 310.95 211.76 326.1 212.13 334.34 217.82 331.63 226.6 Z"/>
<path d="M 343.26 235.75 336.35 237.36 331.63 226.6 334.34 217.82 341.57 224.46 343.26 235.75 Z"/>
<path d="M 348.85 234.61 343.26 235.75 341.57 224.46 350.42 225.06 348.85 234.61 Z"/>
<path d="M 356.79 229.5 348.85 234.61 350.42 225.06 356.79 229.5 Z M 517.15 103.89 520.7 109 518.97 113.52 520.61 119.89 508.28 123.27 494.73 120.64 491.79 109.14 506.97 99.22 515.73 103.71 517.15 103.89 Z" fill-rule="evenodd"/>
<path d="M 291.05 241.44 284.22 249.34 277.38 250.46 275.63 243.95 281.4 237.19 291.05 241.44 Z"/>
<path d="M 586.47 302.7 581.59 302.26 570.04 290.19 583.93 284.01 591.06 287.35 586.47 302.7 Z"/>
<path d="M 581.59 302.26 571.15 311.67 555.16 309.68 557.97 291.62 569.54 289.98 570.04 290.19 581.59 302.26 Z"/>
<path d="M 555.16 309.68 555.15 319.92 545.31 320.24 539.53 302.31 532.53 288.98 564.36 289.6 569.54 289.98 557.97 291.62 555.16 309.68 Z"/>
<path d="M 453.67 203.33 454.36 196.29 466.26 200.5 468.08 206.52 462.02 206.13 453.77 206.68 453.31 204.56 453.67 203.33 Z"/>
<path d="M 468.08 206.52 466.26 200.5 484.65 198.04 482.11 171.83 486.35 171.78 511.83 187.91 510.09 197.86 501.04 199.63 494.45 200.66 485.02 212.27 477.74 212.72 468.08 206.52 Z"/>
<path d="M 452.7 182.8 464.16 181.89 466.82 169.12 475.92 165.07 486.35 171.78 482.11 171.83 484.65 198.04 466.26 200.5 454.36 196.29 452.7 182.8 Z"/>
<path d="M 507.46 223.67 505.17 223.99 502.49 210.53 505.97 207.92 510.01 208.69 507.46 223.67 Z"/>
<path d="M 541.17 177.64 544.09 184.5 540.19 205.37 539.31 206.41 512.11 202.91 510.01 208.69 505.97 207.92 501.04 199.63 510.09 197.86 511.83 187.91 533.27 175.95 541.17 177.64 Z"/>
<path d="M 507.46 223.67 510.01 208.69 512.11 202.91 539.31 206.41 532.56 221.66 523.56 227.79 516.35 229.2 507.46 223.67 Z"/>
<path d="M 540.19 205.37 538.68 214.54 542.36 220.44 540.14 227.9 544.39 234.73 536.25 234.73 531.26 234.75 526.75 234.69 523.56 227.79 532.56 221.66 539.31 206.41 540.19 205.37 Z"/>
<path d="M 502.49 210.53 505.17 223.99 502.94 224.58 500.07 210.47 502.49 210.53 Z"/>
<path d="M 500.07 210.47 502.94 224.58 492.08 227.17 492.16 214.29 500.07 210.47 Z"/>
<path d="M 477.74 212.72 485.02 212.27 492.16 214.29 492.08 227.17 478.62 228.92 476.6 219.71 477.74 212.72 Z"/>
<path d="M 462.02 206.13 468.08 206.52 477.74 212.72 476.6 219.71 471.64 217.71 463.28 216.34 458.06 210.41 462.02 206.13 Z"/>
<path d="M 453.77 206.68 462.02 206.13 458.06 210.41 453.77 206.68 Z"/>
<path d="M 476.6 219.71 478.62 228.92 468.29 222.21 471.64 217.71 476.6 219.71 Z"/>
<path d="M 463.28 216.34 471.64 217.71 468.29 222.21 463.28 216.34 Z"/>
<path d="M 485.02 212.27 494.45 200.66 501.04 199.63 505.97 207.92 502.49 210.53 500.07 210.47 492.16 214.29 485.02 212.27 Z"/>
<path d="M 575.89 226.51 551.16 231.3 544.39 234.73 540.14 227.9 542.36 220.44 549.8 219.14 563.38 210.13 568.11 218.2 575.89 226.51 Z"/>
<path d="M 551.16 231.3 548.58 243.08 540.43 254.8 536.03 254.27 533.03 254.98 530.75 252.05 539.99 244.71 536.25 234.73 544.39 234.73 551.16 231.3 Z"/>
<path d="M 531.26 234.75 536.25 234.73 539.99 244.71 530.75 252.05 524.39 244.1 526.32 238.22 531.26 234.75 Z"/>
<path d="M 526.75 234.69 531.26 234.75 526.32 238.22 526.75 234.69 Z"/>
<path d="M 585.22 264.14 590.82 266.61 592.08 279.75 583.93 284.01 570.04 290.19 569.54 289.98 564.36 289.6 560.81 276.77 566.29 271.31 578.05 275.04 579.66 264.66 585.22 264.14 Z"/>
<path d="M 590.82 266.61 595.81 272.95 592.08 279.75 590.82 266.61 Z"/>
<path d="M 595.81 272.95 611.77 269.62 613.04 281.75 596.44 295.86 598.3 307.89 591.01 315.15 588.91 315.13 588.26 312.66 586.47 302.7 591.06 287.35 583.93 284.01 592.08 279.75 595.81 272.95 Z"/>
<path d="M 536.03 254.27 533.77 257.07 533.03 254.98 536.03 254.27 Z M 534.16 257.93 545.26 257.31 548.44 263.39 560.24 261.23 566.29 271.31 560.81 276.77 564.36 289.6 532.53 288.98 537.8 274.39 534.16 257.93 Z" fill-rule="evenodd"/>
<path d="M 584.47 247.71 581.34 253.49 580.46 248.89 584.47 247.71 Z"/>
<path d="M 599.02 150.34 598.54 151.21 598.13 153.72 596.81 159.23 596.54 158.51 594.99 154.47 597.38 149.28 599.3 148.77 599.02 150.34 Z"/>
<path d="M 599.3 148.77 597.38 149.28 599.8 144.97 599.3 148.77 Z"/>
<path d="M 637.35 275.59 639.93 283.23 630.56 310.16 622.09 310.29 619.91 302.17 621.88 289.28 637.35 275.59 Z"/>
<path d="M 526.29 157 521.1 148.58 523.34 138.59 531.85 149.15 526.29 157 Z"/>
<path d="M 475.92 165.07 475.98 164.35 496.37 151.58 493.98 143.52 504.07 139.54 523.34 138.59 521.1 148.58 526.29 157 528.56 173.43 533.27 175.95 511.83 187.91 486.35 171.78 475.92 165.07 Z"/>
<path d="M 598.54 151.21 599.02 150.34 607.54 148.48 608.66 151.86 596.91 159.63 596.81 159.23 598.13 153.72 598.54 151.21 Z"/>
<path d="M 642.99 173.8 655.44 168.79 655.97 169.73 656.34 171.92 653.05 178.06 642.99 173.8 Z"/>
<path d="M 633 157.92 634.22 161.87 629.1 160.35 633 157.92 Z"/>
<path d="M 608.66 151.86 607.54 148.48 617.4 137.81 624.12 137.97 625.91 146.85 634.64 158.05 633 157.92 629.1 160.35 608.66 151.86 Z"/>
<path d="M 653.05 178.06 656.34 171.92 665.8 179.17 660.2 188.16 647.23 194.86 644.16 188.35 652.47 185.57 653.05 178.06 Z"/>
<path d="M 784.39 207.23 791.69 201.45 797.69 201.65 789.24 211.95 784.39 207.23 Z"/>
<path d="M 791.69 201.45 784.39 207.23 774.88 213.4 783.16 223.77 777.46 223.1 773.21 213.48 776.08 208.05 771.29 192.32 777.54 184.41 788.19 190.45 791.69 201.45 Z"/>
<path d="M 797.69 201.65 791.69 201.45 788.19 190.45 777.54 184.41 780.49 181.59 783.24 178.74 789.52 183.47 797.69 201.65 Z"/>
<path d="M 777.54 184.41 771.29 192.32 776.08 208.05 773.21 213.48 769.36 194.09 756.07 183.71 756.91 179.91 769.81 162.67 773.57 164.76 775.12 179.7 780.49 181.59 777.54 184.41 Z"/>
<path d="M 789.24 211.95 797.69 201.65 789.52 183.47 783.24 178.74 792 176.28 799.54 181.27 792.92 188.18 801.83 198.67 802.73 208.67 789.24 211.95 Z"/>
<path d="M 862.16 123.49 862.55 123.97 855.81 133.98 849.78 136.37 844.49 130.33 862.16 123.49 Z"/>
<path d="M 743.27 104.35 755.7 100.18 769.63 103.17 774.07 96.73 787.41 102.16 806.78 104.82 823.46 102.72 825.52 111.63 802.85 123.14 790.99 125.7 767.1 122.57 752.12 115.47 743.27 104.35 Z"/>
<path d="M 769.81 162.67 756.91 179.91 746.82 179.87 722.68 196.94 721.38 212.3 712.33 216.35 703.85 196.69 701.35 181.81 695.36 183.14 689 175.34 706.31 155.13 705.81 144.69 715.78 142.62 718.28 153.65 724.86 157.34 736.34 166.93 744.29 163.74 746.21 165.34 754.2 164.03 762.16 159.85 769.81 162.67 Z"/>
<path d="M 756.91 179.91 756.07 183.71 746.82 179.87 756.91 179.91 Z"/>
<path d="M 744.29 163.74 736.34 166.93 724.86 157.34 744.29 163.74 Z"/>
<path d="M 715.78 142.62 705.81 144.69 706.31 155.13 689 175.34 684 170.53 670.48 171.5 675.53 166.84 668.76 158.32 683.93 158.16 691.08 153.36 699.17 139.8 708.35 138.08 715.78 142.62 Z"/>
<path d="M 684.4 137.44 688.04 138.04 707.86 137.28 708.35 138.08 699.17 139.8 691.08 153.36 683.93 158.16 668.76 158.32 669.69 142.19 684.4 137.44 Z"/>
<path d="M 688.04 138.04 696.87 129.45 704.24 131.71 707.86 137.28 688.04 138.04 Z"/>
<path d="M 696.72 123.85 705.73 120.98 722.5 123.61 704.24 131.71 696.87 129.45 696.72 123.85 Z"/>
<path d="M 645.55 125.18 655.16 126.5 666.56 126.18 684.4 137.44 669.69 142.19 664.21 137.3 649.48 137.89 645.55 125.18 Z"/>
<path d="M 634.64 158.05 625.91 146.85 624.12 137.97 624.18 130.92 627.92 133.62 628.92 133.54 635.52 134.79 649.48 137.89 664.21 137.3 669.69 142.19 668.76 158.32 675.53 166.84 670.48 171.5 659.12 169.66 642.83 163.77 634.64 158.05 Z"/>
<path d="M 599.02 150.34 599.3 148.77 599.8 144.97 600.22 141.71 617.4 137.81 607.54 148.48 599.02 150.34 Z"/>
<path d="M 628.92 133.54 627.92 133.62 624.18 130.92 620.82 127.1 624.67 126.67 628.92 133.54 Z"/>
<path d="M 530.57 77.86 533.07 66.01 557.23 49.44 566.27 58.03 549.48 67.06 552.08 74.46 544.02 85.48 530.57 77.86 Z"/>
<path d="M 578.11 85.3 588.12 96.58 565.22 98.03 565.1 91.56 573.45 86.84 578.11 85.3 Z"/>
<path d="M 588.12 96.58 611.08 103.51 605.96 110.44 597.06 114.22 592.69 113.57 582.07 115.45 578.27 114.91 573.79 107.34 562.96 108.28 561.23 106.78 562.54 104.94 565.22 98.03 588.12 96.58 Z"/>
<path d="M 565.1 91.56 565.22 98.03 562.54 104.94 552.27 103.8 541.63 99.34 539.14 91.99 554.5 90.14 563.02 90.41 565.1 91.56 Z"/>
<path d="M 547.07 107.61 544.92 111.13 538.27 112.08 528.95 111.02 526.6 109.27 537.69 105.52 547.02 106.3 547.07 107.61 Z"/>
<path d="M 561.23 106.78 562.96 108.28 556.05 113.14 552.2 113.75 545.92 112.1 544.92 111.13 547.07 107.61 561.23 106.78 Z"/>
<path d="M 578.27 114.91 582.07 115.45 579.17 119.85 562.81 118.39 556.05 113.14 562.96 108.28 573.79 107.34 578.27 114.91 Z"/>
<path d="M 573.45 86.84 565.1 91.56 563.02 90.41 558.96 88.02 558.37 85.69 573.45 86.84 Z"/>
<path d="M 575.65 81.69 578.11 85.3 573.45 86.84 558.37 85.69 567.4 80.8 575.65 81.69 Z"/>
<path d="M 577.57 76.14 575.65 81.69 567.4 80.8 577.57 76.14 Z"/>
<path d="M 539.14 91.99 541.63 99.34 537.69 105.52 526.6 109.27 520.7 109 517.15 103.89 516.75 102.05 517.07 100.18 519.14 92.75 523.64 88.65 527.51 88.59 539.14 91.99 Z"/>
<path d="M 562.81 118.39 579.17 119.85 577.61 124.56 572.4 125.06 563.63 126.42 562.04 123.7 562.81 118.39 Z"/>
<path d="M 563.63 126.42 572.4 125.06 572.24 127.84 555.86 131.17 558.27 127.79 563.63 126.42 Z"/>
<path d="M 624.12 137.97 617.4 137.81 600.22 141.71 576.63 139.39 572.55 131.62 581.06 126.75 597.49 124.47 615.2 125.87 620.82 127.1 624.18 130.92 624.12 137.97 Z M 572.4 125.06 577.61 124.56 572.24 127.84 572.4 125.06 Z" fill-rule="evenodd"/>
<path d="M 558.27 127.79 555.86 131.17 553.7 124.92 555.64 122.95 557.08 124.99 558.27 127.79 Z"/>
<path d="M 545.92 112.1 552.2 113.75 552.69 116.65 551.45 122.78 551.15 123.25 544.4 120.41 538.02 114.88 545.92 112.1 Z"/>
<path d="M 526.6 109.27 528.95 111.02 518.97 113.52 520.7 109 526.6 109.27 Z"/>
<path d="M 516.75 102.05 517.15 103.89 515.73 103.71 516.75 102.05 Z"/>
<path d="M 517.07 100.18 516.75 102.05 515.73 103.71 506.97 99.22 509.19 98.68 517.07 100.18 Z"/>
<path d="M 519.14 92.75 517.07 100.18 509.19 98.68 519.14 92.75 Z"/>
<path d="M 474.95 124.92 479.34 138.17 473.59 133.63 474.95 124.92 Z"/>
<path d="M 479.34 138.17 474.95 124.92 477.88 119.74 494.73 120.64 508.28 123.27 498.11 136.66 485.09 141.36 479.34 138.17 Z"/>
<path d="M 849.71 330.33 827.19 338.22 821.03 330.3 814.35 308.62 817.83 301.53 835.04 295.59 848.43 280.47 858.75 280.99 870.23 273.69 875.44 281.81 886.06 289.18 892.83 282.73 903.01 282.56 905.82 293.57 923.75 311.06 923.85 328.73 916.04 341.98 905.63 349.23 889.88 346.42 872.24 331.44 864.07 328.33 849.71 330.33 Z"/>
<path d="M 722.5 123.61 721.68 116.5 736.09 110.72 742.18 104.58 743.27 104.35 752.12 115.47 767.1 122.57 790.99 125.7 802.85 123.14 825.52 111.63 823.46 102.72 849.15 94.66 863.13 108.53 862.16 123.49 844.49 130.33 825.83 133.63 838.47 158.32 828.94 172.97 810.06 181.27 799.54 181.27 792 176.28 783.24 178.74 780.49 181.59 775.12 179.7 773.57 164.76 769.81 162.67 762.16 159.85 754.2 164.03 746.21 165.34 744.29 163.74 724.86 157.34 718.28 153.65 715.78 142.62 708.35 138.08 707.86 137.28 704.24 131.71 722.5 123.61 Z"/>
<path d="M 528.95 111.02 538.27 112.08 538.64 114.63 534.18 115.21 534.9 118.79 544.05 125.86 533.56 125.4 520.61 119.89 518.97 113.52 528.95 111.02 Z"/>
<path d="M 628.64 124.97 634.69 125.11 635.52 134.79 628.92 133.54 624.67 126.67 628.64 124.97 Z"/>
<path d="M 610.76 120.61 628.64 124.97 624.67 126.67 620.82 127.1 615.2 125.87 610.76 120.61 Z"/>
<path d="M 826.8 229.55 817.76 237.05 804.01 235.46 816.6 228.47 820.06 225.92 826.8 229.55 Z"/>
<path d="M 538.27 112.08 544.92 111.13 545.92 112.1 538.02 114.88 538.64 114.63 538.27 112.08 Z"/>
<path d="M 579.26 49.55 586.33 68.15 577.82 73.29 558.38 67.46 566.27 58.03 557.23 49.44 579.26 49.55 Z"/>
<path d="M 562.54 104.94 561.23 106.78 547.07 107.61 547.02 106.3 552.27 103.8 562.54 104.94 Z"/>
<path d="M 541.63 99.34 552.27 103.8 547.02 106.3 537.69 105.52 541.63 99.34 Z"/>
<path d="M 600.99 201.04 606.48 191.12 608.85 196.88 619.43 205.81 617.41 206.25 608.39 200.15 600.99 201.04 Z"/>
<path d="M 893.34 132.4 885.27 144.91 876.13 142.53 893.34 132.4 Z"/>
<path d="M 338.75 296.95 345.83 303.82 348.57 312.37 339.83 310.77 326.22 302.7 328.71 295.45 338.75 296.95 Z"/>
<path d="M 644.16 188.35 647.23 194.86 634.95 202.2 620.54 205.99 618.59 195.7 630.29 194.03 644.16 188.35 Z"/>
<path d="M 596.91 159.63 608.66 151.86 629.1 160.35 634.22 161.87 640.86 172.39 642.46 172.74 642.99 173.8 653.05 178.06 652.47 185.57 644.16 188.35 630.29 194.03 618.59 195.7 608.5 181.99 596.91 159.63 Z"/>
<path d="M 999 475.86 999 490.52 1 490.52 1 475.86 88.23 478.34 80.47 455.58 125.16 447 177.82 446.84 220.99 449.77 254.87 443.42 328.22 447.38 283.97 458.3 324.64 467.64 420.85 463.73 419.93 453.57 479.44 439.78 526.41 435.1 575.11 436.35 645.86 424.13 690.98 429.35 715.25 433.58 729.47 427.34 814.94 423.64 835.08 427.28 876.67 424.08 903.33 426.52 927.71 431.08 974.62 439.78 960.45 447.22 942.97 465.42 999 475.86 Z"/>
<path d="M 493.98 143.52 496.37 151.58 475.98 164.35 468.42 166.49 459.11 181.41 452.82 181.63 459.97 168.23 473.48 158.04 476 148.87 483.56 141.88 493.98 143.52 Z"/>
<path d="M 602.2 180.03 569.31 180.03 569.76 153.5 580.15 155.44 594.99 154.47 596.54 158.51 592.45 164.23 602.2 180.03 Z"/>
<path d="M 569.31 180.03 566.08 186.74 543.97 176.12 541.17 177.64 533.27 175.95 528.56 173.43 526.29 157 531.85 149.15 552.91 157.11 557.81 150.35 569.76 153.5 569.31 180.03 Z"/>
<path d="M 632.48 218.83 624.65 227.15 616.03 230.15 609.67 231.53 597.85 225.75 594.19 216.94 600.99 201.04 608.39 200.15 617.41 206.25 618.59 210.73 621.09 215.56 632.48 218.83 Z"/>
<path d="M 617.41 206.25 619.43 205.81 619.61 209.24 618.59 210.73 617.41 206.25 Z"/>
<path d="M 635.7 209.38 632.48 218.83 621.09 215.56 618.59 210.73 619.61 209.24 635.7 209.38 Z"/>
<path d="M 593.99 243.65 584.33 244.16 582 244.74 585.48 231.29 594.27 229.24 597.13 235.73 593.99 243.65 Z"/>
<path d="M 584.33 244.16 584.47 247.71 580.46 248.89 582 244.74 584.33 244.16 Z"/>
<path d="M 551.45 122.78 552.69 116.65 553.28 120.36 551.45 122.78 Z"/>
<path d="M 562.04 123.7 563.63 126.42 558.27 127.79 557.08 124.99 559.82 123.9 562.04 123.7 Z"/>
<path d="M 552.2 113.75 556.05 113.14 562.81 118.39 562.04 123.7 559.82 123.9 556.16 122.33 553.28 120.36 552.69 116.65 552.2 113.75 Z"/>
<path d="M 555.64 122.95 553.7 124.92 551.15 123.25 551.45 122.78 553.28 120.36 556.16 122.33 555.64 122.95 Z"/>
<path d="M 557.08 124.99 555.64 122.95 556.16 122.33 559.82 123.9 557.08 124.99 Z"/>
<path d="M 585.48 231.29 575.89 226.51 568.11 218.2 573.4 214.54 586.92 213.82 594.19 216.94 597.85 225.75 594.27 229.24 585.48 231.29 Z"/>
</g>
</svg>